<mxfile host="app.diagrams.net" modified="2023-07-31T10:06:08.936Z" agent="Mozilla/5.0 (Macintosh; Intel Mac OS X 10_15_7) AppleWebKit/537.36 (KHTML, like Gecko) Chrome/115.0.0.0 Safari/537.36" etag="klq9hKAucyeHm1FHh93e" version="21.6.5" type="github">
  <diagram name="Page-1" id="zHUUiC82xC5pGfD_80GM">
    <mxGraphModel dx="2593" dy="1059" grid="0" gridSize="10" guides="1" tooltips="1" connect="1" arrows="1" fold="1" page="0" pageScale="1" pageWidth="1169" pageHeight="827" math="0" shadow="0">
      <root>
        <mxCell id="0" />
        <mxCell id="1" parent="0" />
        <mxCell id="BTJkSmiA3YUgXuVK6yyH-2" value="" style="ellipse;whiteSpace=wrap;html=1;aspect=fixed;fontSize=16;" vertex="1" parent="1">
          <mxGeometry x="-693" y="145" width="80" height="80" as="geometry" />
        </mxCell>
        <mxCell id="BTJkSmiA3YUgXuVK6yyH-8" style="edgeStyle=none;curved=1;rounded=0;orthogonalLoop=1;jettySize=auto;html=1;fontSize=12;startSize=8;endSize=8;" edge="1" parent="1" source="BTJkSmiA3YUgXuVK6yyH-1" target="BTJkSmiA3YUgXuVK6yyH-7">
          <mxGeometry relative="1" as="geometry" />
        </mxCell>
        <mxCell id="BTJkSmiA3YUgXuVK6yyH-19" style="edgeStyle=none;curved=1;rounded=0;orthogonalLoop=1;jettySize=auto;html=1;fontSize=12;startSize=8;endSize=8;" edge="1" parent="1" source="BTJkSmiA3YUgXuVK6yyH-5" target="BTJkSmiA3YUgXuVK6yyH-17">
          <mxGeometry relative="1" as="geometry" />
        </mxCell>
        <mxCell id="BTJkSmiA3YUgXuVK6yyH-5" value="marketplace backend" style="rounded=0;whiteSpace=wrap;html=1;fontSize=16;" vertex="1" parent="1">
          <mxGeometry x="1199" y="214" width="120" height="60" as="geometry" />
        </mxCell>
        <mxCell id="BTJkSmiA3YUgXuVK6yyH-7" value="Blockchain" style="swimlane;whiteSpace=wrap;html=1;fontSize=16;" vertex="1" parent="1">
          <mxGeometry x="151" y="258" width="338" height="125" as="geometry" />
        </mxCell>
        <mxCell id="BTJkSmiA3YUgXuVK6yyH-3" value="qubix S.Cs." style="rounded=0;whiteSpace=wrap;html=1;fontSize=16;" vertex="1" parent="BTJkSmiA3YUgXuVK6yyH-7">
          <mxGeometry x="19" y="44" width="120" height="60" as="geometry" />
        </mxCell>
        <mxCell id="BTJkSmiA3YUgXuVK6yyH-6" value="blockchain" style="rounded=0;whiteSpace=wrap;html=1;fontSize=16;" vertex="1" parent="1">
          <mxGeometry x="-586" y="159" width="120" height="60" as="geometry" />
        </mxCell>
        <mxCell id="BTJkSmiA3YUgXuVK6yyH-11" style="edgeStyle=none;curved=1;rounded=0;orthogonalLoop=1;jettySize=auto;html=1;fontSize=12;startSize=8;endSize=8;" edge="1" parent="1" source="BTJkSmiA3YUgXuVK6yyH-4" target="BTJkSmiA3YUgXuVK6yyH-7">
          <mxGeometry relative="1" as="geometry">
            <mxPoint x="330" y="103" as="sourcePoint" />
            <mxPoint x="330" y="268" as="targetPoint" />
          </mxGeometry>
        </mxCell>
        <mxCell id="BTJkSmiA3YUgXuVK6yyH-14" style="edgeStyle=none;curved=1;rounded=0;orthogonalLoop=1;jettySize=auto;html=1;fontSize=12;startSize=8;endSize=8;startArrow=classic;startFill=1;" edge="1" parent="1" source="BTJkSmiA3YUgXuVK6yyH-23" target="BTJkSmiA3YUgXuVK6yyH-5">
          <mxGeometry relative="1" as="geometry">
            <mxPoint x="1133" y="218" as="sourcePoint" />
          </mxGeometry>
        </mxCell>
        <mxCell id="BTJkSmiA3YUgXuVK6yyH-16" style="edgeStyle=none;curved=1;rounded=0;orthogonalLoop=1;jettySize=auto;html=1;fontSize=12;startSize=8;endSize=8;" edge="1" parent="1" target="BTJkSmiA3YUgXuVK6yyH-12">
          <mxGeometry relative="1" as="geometry">
            <mxPoint x="1073" y="135" as="sourcePoint" />
          </mxGeometry>
        </mxCell>
        <mxCell id="BTJkSmiA3YUgXuVK6yyH-15" value="marketplace" style="rounded=0;whiteSpace=wrap;html=1;fontSize=16;" vertex="1" parent="1">
          <mxGeometry x="1778" y="66" width="120" height="60" as="geometry" />
        </mxCell>
        <mxCell id="BTJkSmiA3YUgXuVK6yyH-17" value="Blockchain" style="swimlane;whiteSpace=wrap;html=1;fontSize=16;" vertex="1" parent="1">
          <mxGeometry x="1090" y="339" width="338" height="125" as="geometry" />
        </mxCell>
        <mxCell id="BTJkSmiA3YUgXuVK6yyH-18" value="marketplace S.Cs." style="rounded=0;whiteSpace=wrap;html=1;fontSize=16;" vertex="1" parent="BTJkSmiA3YUgXuVK6yyH-17">
          <mxGeometry x="19" y="44" width="120" height="60" as="geometry" />
        </mxCell>
        <mxCell id="BTJkSmiA3YUgXuVK6yyH-21" value="marketplace" style="rounded=0;whiteSpace=wrap;html=1;fontSize=16;" vertex="1" parent="1">
          <mxGeometry x="2322" y="66" width="120" height="60" as="geometry" />
        </mxCell>
        <mxCell id="BTJkSmiA3YUgXuVK6yyH-22" value="Qubix" style="swimlane;whiteSpace=wrap;html=1;fontSize=16;" vertex="1" parent="1">
          <mxGeometry x="151" y="35" width="347" height="126" as="geometry" />
        </mxCell>
        <mxCell id="BTJkSmiA3YUgXuVK6yyH-1" value="backend" style="rounded=0;whiteSpace=wrap;html=1;fontSize=16;" vertex="1" parent="BTJkSmiA3YUgXuVK6yyH-22">
          <mxGeometry x="40" y="44" width="120" height="60" as="geometry" />
        </mxCell>
        <mxCell id="BTJkSmiA3YUgXuVK6yyH-4" value="webGL" style="rounded=0;whiteSpace=wrap;html=1;fontSize=16;" vertex="1" parent="BTJkSmiA3YUgXuVK6yyH-22">
          <mxGeometry x="191" y="44" width="120" height="60" as="geometry" />
        </mxCell>
        <mxCell id="BTJkSmiA3YUgXuVK6yyH-23" value="Qubix" style="swimlane;whiteSpace=wrap;html=1;fontSize=16;" vertex="1" parent="1">
          <mxGeometry x="1083" y="15" width="347" height="126" as="geometry" />
        </mxCell>
        <mxCell id="BTJkSmiA3YUgXuVK6yyH-24" value="backend" style="rounded=0;whiteSpace=wrap;html=1;fontSize=16;" vertex="1" parent="BTJkSmiA3YUgXuVK6yyH-23">
          <mxGeometry x="40" y="44" width="120" height="60" as="geometry" />
        </mxCell>
        <mxCell id="BTJkSmiA3YUgXuVK6yyH-25" value="webGL" style="rounded=0;whiteSpace=wrap;html=1;fontSize=16;" vertex="1" parent="BTJkSmiA3YUgXuVK6yyH-23">
          <mxGeometry x="191" y="44" width="120" height="60" as="geometry" />
        </mxCell>
        <mxCell id="BTJkSmiA3YUgXuVK6yyH-26" value="marketplace frontend" style="rounded=0;whiteSpace=wrap;html=1;fontSize=16;" vertex="1" parent="1">
          <mxGeometry x="951" y="214" width="120" height="60" as="geometry" />
        </mxCell>
        <mxCell id="BTJkSmiA3YUgXuVK6yyH-28" style="edgeStyle=none;curved=1;rounded=0;orthogonalLoop=1;jettySize=auto;html=1;fontSize=12;startSize=8;endSize=8;" edge="1" parent="1" source="BTJkSmiA3YUgXuVK6yyH-27" target="BTJkSmiA3YUgXuVK6yyH-26">
          <mxGeometry relative="1" as="geometry" />
        </mxCell>
        <mxCell id="BTJkSmiA3YUgXuVK6yyH-29" style="edgeStyle=none;curved=1;rounded=0;orthogonalLoop=1;jettySize=auto;html=1;fontSize=12;startSize=8;endSize=8;" edge="1" parent="1" source="BTJkSmiA3YUgXuVK6yyH-27" target="BTJkSmiA3YUgXuVK6yyH-23">
          <mxGeometry relative="1" as="geometry" />
        </mxCell>
        <mxCell id="BTJkSmiA3YUgXuVK6yyH-27" value="user" style="shape=umlActor;verticalLabelPosition=bottom;verticalAlign=top;html=1;outlineConnect=0;fontSize=16;" vertex="1" parent="1">
          <mxGeometry x="999" y="48" width="30" height="60" as="geometry" />
        </mxCell>
        <mxCell id="BTJkSmiA3YUgXuVK6yyH-31" style="edgeStyle=none;curved=1;rounded=0;orthogonalLoop=1;jettySize=auto;html=1;fontSize=12;startSize=8;endSize=8;" edge="1" parent="1" source="BTJkSmiA3YUgXuVK6yyH-30" target="BTJkSmiA3YUgXuVK6yyH-22">
          <mxGeometry relative="1" as="geometry" />
        </mxCell>
        <mxCell id="BTJkSmiA3YUgXuVK6yyH-30" value="user" style="shape=umlActor;verticalLabelPosition=bottom;verticalAlign=top;html=1;outlineConnect=0;fontSize=16;" vertex="1" parent="1">
          <mxGeometry x="-12" y="68" width="30" height="60" as="geometry" />
        </mxCell>
      </root>
    </mxGraphModel>
  </diagram>
</mxfile>
